<svg width="136" height="27" viewBox="0 0 136 27" fill="none" xmlns="http://www.w3.org/2000/svg">
<path d="M16.3037 0.296875V19.916C16.3037 21.1009 16.0872 22.1035 15.6543 22.9238C15.2214 23.7214 14.6403 24.3708 13.9111 24.8721C13.182 25.3506 12.3389 25.6924 11.3818 25.8975C10.4476 26.0798 9.47917 26.1709 8.47656 26.1709C7.97526 26.1709 7.38281 26.1139 6.69922 26C6.03841 25.9089 5.34342 25.7607 4.61426 25.5557C3.90788 25.3278 3.22428 25.0771 2.56348 24.8037C1.90267 24.5303 1.3444 24.2227 0.888672 23.8809L2.63184 21.1123C2.8597 21.2718 3.17871 21.4427 3.58887 21.625C4.02181 21.7845 4.48893 21.944 4.99023 22.1035C5.49154 22.2402 6.01562 22.3656 6.5625 22.4795C7.10938 22.5934 7.62207 22.6504 8.10059 22.6504C9.30827 22.6504 10.2653 22.4225 10.9717 21.9668C11.7008 21.4883 12.0882 20.6908 12.1338 19.5742V0.296875H16.3037ZM90.166 0.296875V19.916C90.166 21.1009 89.9495 22.1035 89.5166 22.9238C89.0837 23.7214 88.5026 24.3708 87.7734 24.8721C87.0443 25.3506 86.2012 25.6924 85.2441 25.8975C84.3099 26.0798 83.3415 26.1709 82.3389 26.1709C81.8376 26.1709 81.2451 26.1139 80.5615 26C79.9007 25.9089 79.2057 25.7607 78.4766 25.5557C77.7702 25.3278 77.0866 25.0771 76.4258 24.8037C75.765 24.5303 75.2067 24.2227 74.751 23.8809L76.4941 21.1123C76.722 21.2718 77.041 21.4427 77.4512 21.625C77.8841 21.7845 78.3512 21.944 78.8525 22.1035C79.3538 22.2402 79.8779 22.3656 80.4248 22.4795C80.9717 22.5934 81.4844 22.6504 81.9629 22.6504C83.1706 22.6504 84.1276 22.4225 84.834 21.9668C85.5632 21.4883 85.9505 20.6908 85.9961 19.5742V0.296875H90.166Z" fill="#A18A68"/>
<path d="M31.2061 6.55176C32.4365 6.66569 33.5417 6.99609 34.5215 7.54297C35.5241 8.08984 36.3786 8.79622 37.085 9.66211C37.7913 10.528 38.3268 11.5192 38.6914 12.6357C39.0788 13.7523 39.2725 14.9144 39.2725 16.1221C39.2725 16.6689 39.2383 17.2158 39.1699 17.7627H27.4463V14.7549H35.3418C35.3418 14.1624 35.2393 13.5928 35.0342 13.0459C34.8519 12.499 34.5671 11.9977 34.1797 11.542C33.8151 11.0635 33.3822 10.6647 32.8809 10.3457C32.3796 10.0267 31.8213 9.83301 31.2061 9.76465V6.55176ZM31.0693 22.7871C31.32 22.7871 31.6276 22.7643 31.9922 22.7188C32.3796 22.6504 32.7783 22.5479 33.1885 22.4111C33.6214 22.2516 34.043 22.0579 34.4531 21.8301C34.8861 21.6022 35.262 21.3288 35.5811 21.0098L37.085 23.2998C36.333 24.234 35.4557 24.9404 34.4531 25.4189C33.4505 25.8975 32.1745 26.1367 30.625 26.1367C29.3717 26.1367 28.1982 25.8861 27.1045 25.3848C26.0107 24.8607 25.0765 24.1543 24.3018 23.2656C23.527 22.377 22.9118 21.3402 22.4561 20.1553C22.0003 18.9704 21.7725 17.6943 21.7725 16.3271C21.7725 15.0283 21.9775 13.7979 22.3877 12.6357C22.8206 11.4736 23.4017 10.4596 24.1309 9.59375C24.86 8.70508 25.7031 7.9873 26.6602 7.44043C27.64 6.89355 28.6882 6.58594 29.8047 6.51758V9.79883C28.9616 9.95833 28.2666 10.3001 27.7197 10.8242C27.1729 11.3483 26.7399 11.9521 26.4209 12.6357C26.1247 13.2965 25.9082 13.9801 25.7715 14.6865C25.6576 15.3929 25.6006 15.9967 25.6006 16.498C25.6006 17.3867 25.7031 18.2184 25.9082 18.9932C26.1361 19.7451 26.4779 20.4059 26.9336 20.9756C27.3893 21.5225 27.9476 21.9668 28.6084 22.3086C29.292 22.6276 30.1123 22.7871 31.0693 22.7871ZM66.9922 6.72266H71.4697L66.0352 26.1367H60.7031L58.6523 18.1729V6.72266H60.1562L63.4033 22.7871L66.9922 6.72266ZM52.0898 22.7871L55.6787 6.72266H57.251V17.1475L54.79 26.1367H49.4238L44.4678 6.72266H48.9111L52.0898 22.7871ZM105.171 6.62012C106.424 6.68848 107.563 6.99609 108.589 7.54297C109.614 8.06706 110.469 8.77344 111.152 9.66211C111.859 10.528 112.406 11.542 112.793 12.7041C113.18 13.8662 113.374 15.1081 113.374 16.4297C113.374 17.7513 113.169 18.9932 112.759 20.1553C112.371 21.2946 111.825 22.2972 111.118 23.1631C110.412 24.0062 109.546 24.6898 108.521 25.2139C107.495 25.738 106.379 26.0456 105.171 26.1367V22.8555C106.31 22.6048 107.233 21.887 107.939 20.7021C108.669 19.5173 109.033 18.0931 109.033 16.4297C109.033 15.5866 108.942 14.8005 108.76 14.0713C108.6 13.3193 108.35 12.6471 108.008 12.0547C107.666 11.4622 107.256 10.9723 106.777 10.585C106.299 10.1976 105.763 9.94694 105.171 9.83301V6.62012ZM95.6348 16.3613C95.6348 15.0397 95.8285 13.8092 96.2158 12.6699C96.6032 11.5306 97.1501 10.5394 97.8564 9.69629C98.5856 8.8304 99.4515 8.13542 100.454 7.61133C101.457 7.08724 102.562 6.76823 103.77 6.6543V9.83301C102.63 10.0837 101.719 10.8014 101.035 11.9863C100.352 13.1712 100.01 14.5954 100.01 16.2588C100.01 17.1019 100.09 17.8994 100.249 18.6514C100.431 19.4033 100.682 20.0755 101.001 20.668C101.32 21.2604 101.707 21.7503 102.163 22.1377C102.642 22.5251 103.177 22.7643 103.77 22.8555V26.1367C102.516 26.0456 101.388 25.738 100.386 25.2139C99.3831 24.667 98.5286 23.9606 97.8223 23.0947C97.1159 22.2288 96.569 21.2148 96.1816 20.0527C95.8171 18.8906 95.6348 17.6602 95.6348 16.3613ZM127.695 6.55176C128.926 6.66569 130.031 6.99609 131.011 7.54297C132.013 8.08984 132.868 8.79622 133.574 9.66211C134.281 10.528 134.816 11.5192 135.181 12.6357C135.568 13.7523 135.762 14.9144 135.762 16.1221C135.762 16.6689 135.728 17.2158 135.659 17.7627H123.936V14.7549H131.831C131.831 14.1624 131.729 13.5928 131.523 13.0459C131.341 12.499 131.056 11.9977 130.669 11.542C130.304 11.0635 129.871 10.6647 129.37 10.3457C128.869 10.0267 128.311 9.83301 127.695 9.76465V6.55176ZM127.559 22.7871C127.809 22.7871 128.117 22.7643 128.481 22.7188C128.869 22.6504 129.268 22.5479 129.678 22.4111C130.111 22.2516 130.532 22.0579 130.942 21.8301C131.375 21.6022 131.751 21.3288 132.07 21.0098L133.574 23.2998C132.822 24.234 131.945 24.9404 130.942 25.4189C129.94 25.8975 128.664 26.1367 127.114 26.1367C125.861 26.1367 124.688 25.8861 123.594 25.3848C122.5 24.8607 121.566 24.1543 120.791 23.2656C120.016 22.377 119.401 21.3402 118.945 20.1553C118.49 18.9704 118.262 17.6943 118.262 16.3271C118.262 15.0283 118.467 13.7979 118.877 12.6357C119.31 11.4736 119.891 10.4596 120.62 9.59375C121.349 8.70508 122.192 7.9873 123.149 7.44043C124.129 6.89355 125.177 6.58594 126.294 6.51758V9.79883C125.451 9.95833 124.756 10.3001 124.209 10.8242C123.662 11.3483 123.229 11.9521 122.91 12.6357C122.614 13.2965 122.397 13.9801 122.261 14.6865C122.147 15.3929 122.09 15.9967 122.09 16.498C122.09 17.3867 122.192 18.2184 122.397 18.9932C122.625 19.7451 122.967 20.4059 123.423 20.9756C123.879 21.5225 124.437 21.9668 125.098 22.3086C125.781 22.6276 126.602 22.7871 127.559 22.7871Z" fill="black"/>
</svg>
